<svg width="376" height="290" viewBox="0 0 376 290" fill="none" xmlns="http://www.w3.org/2000/svg">
<rect x="28.5137" y="68.3918" width="288" height="176" rx="8" transform="rotate(-12 28.5137 68.3918)" fill="#F7FAFA"/>
<rect x="29.1067" y="68.777" width="287" height="175" rx="7.5" transform="rotate(-12 29.1067 68.777)" stroke="#BEC9C9" stroke-opacity="0.1"/>
<g filter="url(#filter0_d_1_2738)">
<rect x="28.5137" y="68.3918" width="288" height="176" rx="8" transform="rotate(-12 28.5137 68.3918)" fill="white" fill-opacity="0.01" shape-rendering="crispEdges"/>
</g>
<rect x="58.166" y="87.6514" width="47.999" height="47.999" rx="4" transform="rotate(-12 58.166 87.6514)" fill="#0D7377" fill-opacity="0.1"/>
<path d="M84.308 110.362L92.525 106.213C92.7556 106.096 92.907 105.906 92.979 105.643C93.051 105.381 93.0284 105.134 92.9113 104.904C92.7941 104.673 92.6124 104.52 92.3664 104.445C92.1203 104.369 91.8819 104.39 91.6512 104.507L89.3899 105.652L84.6977 102.816L83.401 103.449L86.6218 107.059L84.399 108.144L82.9788 107.475L82.1015 107.917L84.308 110.362ZM96.1188 112.299L80.4684 115.625C79.9305 115.739 79.4292 115.646 78.9647 115.344C78.5001 115.042 78.2107 114.623 78.0963 114.085L77.2647 110.172C77.8026 110.058 78.2225 109.768 78.5242 109.304C78.8258 108.839 78.9195 108.338 78.8051 107.8C78.6908 107.262 78.4013 106.842 77.9368 106.54C77.4723 106.239 76.971 106.145 76.433 106.259L75.6014 102.347C75.487 101.809 75.5807 101.308 75.8824 100.843C76.184 100.379 76.6039 100.089 77.1418 99.9747L92.7922 96.6481C93.3302 96.5338 93.8315 96.6275 94.296 96.9291C94.7605 97.2308 95.05 97.6506 95.1643 98.1886L97.6593 109.926C97.7736 110.464 97.68 110.966 97.3783 111.43C97.0766 111.895 96.6568 112.184 96.1188 112.299ZM95.703 110.342L93.208 98.6044L77.5577 101.931L78.0878 104.425C78.7673 104.656 79.3455 105.031 79.8225 105.552C80.2994 106.072 80.6124 106.683 80.7614 107.384C80.9104 108.085 80.8729 108.77 80.6489 109.44C80.4249 110.109 80.0494 110.688 79.5224 111.175L80.0526 113.669L95.703 110.342Z" fill="#0D7377"/>
<path d="M254.029 57.395C253.516 57.5039 253.054 57.5157 252.641 57.4304C252.229 57.345 251.884 57.1761 251.608 56.9238C251.331 56.6714 251.136 56.3493 251.023 55.9573L251.954 55.7594C252.037 56.0214 252.174 56.2226 252.367 56.363C252.56 56.5034 252.787 56.5899 253.049 56.6225C253.31 56.6551 253.58 56.6419 253.857 56.583C254.178 56.5147 254.456 56.4007 254.69 56.2412C254.924 56.0816 255.095 55.8904 255.204 55.6676C255.313 55.4447 255.341 55.2075 255.288 54.956C255.239 54.7267 255.135 54.5541 254.976 54.4383C254.816 54.3224 254.62 54.241 254.387 54.194C254.154 54.147 253.903 54.1155 253.633 54.0996L252.722 54.0388C252.114 53.9982 251.619 53.8605 251.236 53.6257C250.853 53.3909 250.612 53.0379 250.512 52.5666C250.427 52.1654 250.46 51.7914 250.613 51.4445C250.765 51.0976 251.009 50.8021 251.343 50.558C251.677 50.3139 252.073 50.1431 252.532 50.0457C253 49.9462 253.431 49.941 253.826 50.0301C254.221 50.1192 254.554 50.284 254.823 50.5247C255.092 50.7653 255.271 51.0642 255.36 51.4213L254.472 51.6101C254.357 51.2719 254.134 51.0388 253.804 50.9109C253.474 50.7831 253.097 50.7641 252.674 50.8541C252.368 50.9191 252.11 51.0263 251.901 51.1757C251.691 51.325 251.541 51.5 251.451 51.7006C251.36 51.9012 251.339 52.113 251.386 52.3358C251.439 52.5842 251.559 52.7676 251.745 52.886C251.932 53.0044 252.14 53.0833 252.37 53.1227C252.599 53.1621 252.805 53.1874 252.987 53.1986L253.741 53.2431C253.943 53.2535 254.168 53.2787 254.418 53.3188C254.668 53.3589 254.914 53.4306 255.155 53.534C255.397 53.6374 255.61 53.7885 255.793 53.9874C255.977 54.1863 256.104 54.4513 256.174 54.7825C256.257 55.1709 256.23 55.5427 256.094 55.8977C255.959 56.2527 255.717 56.5619 255.371 56.8253C255.024 57.0887 254.577 57.2786 254.029 57.395ZM257.197 49.9925L257.026 49.1902L262.404 48.047L262.575 48.8494L260.344 49.3235L261.687 55.6376L260.779 55.8304L259.437 49.5164L257.197 49.9925ZM264.781 54.9799L265.852 47.3143L266.902 47.0909L271.032 53.651L270.077 53.8541L267.671 49.9528C267.523 49.7113 267.346 49.4086 267.141 49.0446C266.935 48.6806 266.68 48.2147 266.377 47.647L266.549 47.6104C266.507 48.2583 266.465 48.7938 266.423 49.217C266.382 49.6401 266.345 49.9815 266.314 50.2411L265.745 54.7748L264.781 54.9799ZM265.657 52.7169L265.489 51.9241L269.142 51.1475L269.311 51.9403L265.657 52.7169ZM270.554 47.1534L270.383 46.3511L275.761 45.208L275.932 46.0103L273.701 46.4844L275.043 52.7985L274.136 52.9913L272.794 46.6773L270.554 47.1534ZM282.389 51.357C281.828 51.4761 281.315 51.4703 280.85 51.3396C280.384 51.2089 279.997 50.9769 279.686 50.6435C279.376 50.3102 279.169 49.8999 279.065 49.4127L278.067 44.7178L278.975 44.5249L279.957 49.1482C280.03 49.4889 280.17 49.7761 280.378 50.0098C280.585 50.2436 280.846 50.4071 281.158 50.5003C281.471 50.5936 281.821 50.599 282.21 50.5164C282.598 50.4338 282.916 50.2865 283.162 50.0745C283.408 49.8624 283.578 49.6075 283.671 49.3099C283.764 49.0122 283.774 48.693 283.702 48.3523L282.719 43.729L283.627 43.5361L284.624 48.231C284.728 48.7182 284.706 49.1772 284.558 49.608C284.41 50.0388 284.151 50.4083 283.782 50.7163C283.414 51.0243 282.949 51.2379 282.389 51.357ZM290.141 49.7191C289.629 49.828 289.166 49.8398 288.754 49.7545C288.341 49.6691 287.997 49.5002 287.72 49.2479C287.443 48.9955 287.248 48.6734 287.135 48.2814L288.066 48.0835C288.149 48.3455 288.286 48.5467 288.479 48.6871C288.672 48.8275 288.899 48.914 289.161 48.9466C289.422 48.9792 289.692 48.966 289.969 48.9071C290.29 48.8388 290.568 48.7248 290.802 48.5653C291.036 48.4057 291.208 48.2145 291.317 47.9917C291.426 47.7688 291.453 47.5316 291.4 47.2801C291.351 47.0508 291.247 46.8782 291.088 46.7624C290.928 46.6465 290.732 46.5651 290.499 46.5181C290.266 46.4711 290.015 46.4396 289.745 46.4237L288.834 46.3629C288.226 46.3223 287.731 46.1846 287.348 45.9498C286.966 45.715 286.724 45.362 286.624 44.8907C286.539 44.4896 286.572 44.1155 286.725 43.7686C286.878 43.4217 287.121 43.1262 287.455 42.8821C287.789 42.638 288.186 42.4672 288.644 42.3698C289.112 42.2703 289.544 42.2651 289.939 42.3542C290.334 42.4433 290.666 42.6081 290.935 42.8488C291.204 43.0894 291.383 43.3883 291.472 43.7454L290.584 43.9342C290.469 43.596 290.246 43.3629 289.916 43.235C289.586 43.1072 289.209 43.0882 288.786 43.1783C288.48 43.2432 288.223 43.3504 288.013 43.4998C287.804 43.6491 287.654 43.8241 287.563 44.0247C287.473 44.2253 287.451 44.4371 287.499 44.66C287.551 44.9083 287.671 45.0917 287.858 45.2101C288.044 45.3285 288.252 45.4074 288.482 45.4468C288.712 45.4862 288.917 45.5115 289.1 45.5227L289.853 45.5672C290.055 45.5776 290.281 45.6028 290.53 45.6429C290.78 45.683 291.026 45.7547 291.267 45.8581C291.509 45.9615 291.722 46.1126 291.905 46.3115C292.089 46.5104 292.216 46.7754 292.287 47.1066C292.369 47.495 292.343 47.8668 292.207 48.2218C292.071 48.5768 291.83 48.886 291.483 49.1494C291.136 49.4128 290.689 49.6027 290.141 49.7191Z" fill="#3E4949"/>
<path d="M270.743 70.0703L265.935 62.1666L267.88 61.7532L270.122 65.5823C270.396 66.0692 270.683 66.607 270.984 67.1958C271.285 67.7846 271.607 68.429 271.95 69.1291L271.573 69.209C271.596 68.4221 271.622 67.7014 271.651 67.047C271.68 66.3927 271.718 65.788 271.764 65.2331L272.209 60.8332L274.14 60.4226L273.029 69.5844L270.743 70.0703ZM280.313 68.1559C279.559 68.3163 278.844 68.2884 278.168 68.0722C277.493 67.8561 276.911 67.4585 276.423 66.8795C275.935 66.3005 275.593 65.5488 275.396 64.6244C275.199 63.6941 275.205 62.8647 275.415 62.1362C275.625 61.4077 275.995 60.8075 276.524 60.3355C277.053 59.8635 277.695 59.5473 278.449 59.3869C279.204 59.2266 279.918 59.2546 280.591 59.471C281.264 59.6874 281.845 60.0856 282.334 60.6656C282.822 61.2455 283.165 62.0007 283.363 62.931C283.56 63.8575 283.553 64.6845 283.343 65.412C283.132 66.1395 282.763 66.7385 282.236 67.2093C281.709 67.68 281.068 67.9955 280.313 68.1559ZM279.983 66.6024C280.425 66.5084 280.788 66.318 281.072 66.0312C281.357 65.7443 281.546 65.3709 281.64 64.9109C281.735 64.4509 281.717 63.9167 281.588 63.3084C281.457 62.6944 281.255 62.196 280.982 61.8131C280.708 61.4302 280.383 61.1655 280.007 61.0191C279.631 60.8727 279.222 60.8464 278.779 60.9404C278.338 61.0343 277.974 61.2252 277.689 61.5131C277.404 61.8011 277.214 62.1756 277.119 62.6369C277.024 63.0982 277.041 63.6349 277.172 64.2471C277.301 64.8554 277.503 65.35 277.777 65.7307C278.051 66.1115 278.377 66.3755 278.754 66.5226C279.131 66.6697 279.541 66.6963 279.983 66.6024ZM285.516 58.0046L287.331 66.5443L285.58 66.9165L283.765 58.3769L285.516 58.0046ZM291.878 65.5779L289.666 66.048L289.346 64.5404L291.476 64.0875C292.025 63.9708 292.465 63.7758 292.796 63.5023C293.127 63.2289 293.343 62.8677 293.444 62.4186C293.545 61.9696 293.528 61.4261 293.393 60.7882C293.257 60.1517 293.052 59.6504 292.776 59.2843C292.5 58.9182 292.157 58.6771 291.746 58.561C291.336 58.445 290.858 58.4449 290.312 58.5608L288.132 59.0244L287.811 57.5168L290.094 57.0315C290.952 56.8492 291.725 56.8631 292.414 57.0732C293.103 57.2833 293.681 57.6716 294.149 58.2381C294.617 58.8046 294.946 59.5312 295.134 60.418C295.323 61.3062 295.319 62.1051 295.122 62.8148C294.925 63.5244 294.552 64.1163 294.003 64.5903C293.454 65.0643 292.745 65.3935 291.878 65.5779ZM288.812 57.3041L290.627 65.8438L288.876 66.2161L287.06 57.6764L288.812 57.3041Z" fill="#BA1A1A"/>
<rect x="69.0801" y="139.002" width="178.5" height="8.00403" rx="4.00201" transform="rotate(-12 69.0801 139.002)" fill="#E0E3E3"/>
<rect opacity="0.5" x="71.5762" y="150.741" width="119" height="7.99633" rx="3.99816" transform="rotate(-12 71.5762 150.741)" fill="#E0E3E3"/>
<mask id="path-10-inside-1_1_2738" fill="white">
<path d="M74.1738 162.963L306.973 113.479L317.161 161.409L84.3617 210.892L74.1738 162.963Z"/>
</mask>
<path d="M306.973 113.479L306.869 112.99L305.414 113.3L305.518 113.789L305.622 114.278L307.077 113.969L306.973 113.479ZM303.578 114.201L303.474 113.712L300.564 114.331L300.668 114.82L300.772 115.309L303.682 114.69L303.578 114.201ZM298.728 115.232L298.624 114.743L295.714 115.361L295.818 115.851L295.922 116.34L298.832 115.721L298.728 115.232ZM293.878 116.263L293.774 115.774L290.864 116.392L290.968 116.881L291.072 117.371L293.982 116.752L293.878 116.263ZM289.028 117.294L288.924 116.805L286.014 117.423L286.118 117.912L286.222 118.401L289.132 117.783L289.028 117.294ZM284.178 118.325L284.074 117.836L281.164 118.454L281.268 118.943L281.372 119.432L284.282 118.814L284.178 118.325ZM279.328 119.356L279.224 118.867L276.314 119.485L276.418 119.974L276.522 120.463L279.432 119.845L279.328 119.356ZM274.478 120.386L274.374 119.897L271.464 120.516L271.568 121.005L271.672 121.494L274.582 120.876L274.478 120.386ZM269.628 121.417L269.524 120.928L266.614 121.547L266.718 122.036L266.822 122.525L269.732 121.906L269.628 121.417ZM264.778 122.448L264.674 121.959L261.764 122.578L261.868 123.067L261.972 123.556L264.882 122.937L264.778 122.448ZM259.928 123.479L259.824 122.99L256.914 123.609L257.018 124.098L257.122 124.587L260.032 123.968L259.928 123.479ZM255.078 124.51L254.974 124.021L252.064 124.64L252.168 125.129L252.272 125.618L255.182 124.999L255.078 124.51ZM250.228 125.541L250.124 125.052L247.214 125.67L247.318 126.16L247.422 126.649L250.332 126.03L250.228 125.541ZM245.378 126.572L245.274 126.083L242.364 126.701L242.468 127.19L242.572 127.679L245.482 127.061L245.378 126.572ZM240.528 127.603L240.424 127.114L237.514 127.732L237.618 128.221L237.722 128.71L240.632 128.092L240.528 127.603ZM235.678 128.634L235.574 128.145L232.664 128.763L232.768 129.252L232.872 129.741L235.782 129.123L235.678 128.634ZM230.828 129.665L230.724 129.175L227.814 129.794L227.918 130.283L228.022 130.772L230.932 130.154L230.828 129.665ZM225.978 130.695L225.874 130.206L222.964 130.825L223.068 131.314L223.172 131.803L226.082 131.185L225.978 130.695ZM221.128 131.726L221.024 131.237L218.114 131.856L218.218 132.345L218.322 132.834L221.232 132.215L221.128 131.726ZM216.278 132.757L216.174 132.268L213.264 132.887L213.368 133.376L213.472 133.865L216.382 133.246L216.278 132.757ZM211.428 133.788L211.324 133.299L208.414 133.918L208.518 134.407L208.622 134.896L211.532 134.277L211.428 133.788ZM206.578 134.819L206.474 134.33L203.564 134.949L203.668 135.438L203.772 135.927L206.682 135.308L206.578 134.819ZM201.728 135.85L201.624 135.361L198.714 135.979L198.818 136.468L198.922 136.958L201.832 136.339L201.728 135.85ZM196.878 136.881L196.774 136.392L193.864 137.01L193.968 137.499L194.072 137.988L196.982 137.37L196.878 136.881ZM192.028 137.912L191.924 137.423L189.014 138.041L189.118 138.53L189.222 139.019L192.132 138.401L192.028 137.912ZM187.178 138.943L187.074 138.454L184.164 139.072L184.268 139.561L184.372 140.05L187.282 139.432L187.178 138.943ZM182.328 139.974L182.224 139.484L179.314 140.103L179.418 140.592L179.522 141.081L182.432 140.463L182.328 139.974ZM177.478 141.004L177.374 140.515L174.465 141.134L174.568 141.623L174.672 142.112L177.582 141.493L177.478 141.004ZM172.628 142.035L172.525 141.546L169.615 142.165L169.718 142.654L169.822 143.143L172.732 142.524L172.628 142.035ZM167.778 143.066L167.675 142.577L164.765 143.196L164.868 143.685L164.972 144.174L167.882 143.555L167.778 143.066ZM162.928 144.097L162.825 143.608L159.915 144.227L160.018 144.716L160.122 145.205L163.032 144.586L162.928 144.097ZM158.079 145.128L157.975 144.639L155.065 145.257L155.168 145.747L155.272 146.236L158.182 145.617L158.079 145.128ZM153.228 146.159L153.125 145.67L150.215 146.288L150.319 146.777L150.422 147.267L153.332 146.648L153.228 146.159ZM148.379 147.19L148.275 146.701L145.365 147.319L145.469 147.808L145.572 148.297L148.482 147.679L148.379 147.19ZM143.529 148.221L143.425 147.732L140.515 148.35L140.619 148.839L140.722 149.328L143.632 148.71L143.529 148.221ZM138.679 149.252L138.575 148.763L135.665 149.381L135.769 149.87L135.872 150.359L138.782 149.741L138.679 149.252ZM133.829 150.283L133.725 149.793L130.815 150.412L130.919 150.901L131.022 151.39L133.932 150.772L133.829 150.283ZM128.979 151.313L128.875 150.824L125.965 151.443L126.069 151.932L126.173 152.421L129.082 151.802L128.979 151.313ZM124.129 152.344L124.025 151.855L121.115 152.474L121.219 152.963L121.322 153.452L124.232 152.833L124.129 152.344ZM119.279 153.375L119.175 152.886L116.265 153.505L116.369 153.994L116.473 154.483L119.383 153.864L119.279 153.375ZM114.429 154.406L114.325 153.917L111.415 154.536L111.519 155.025L111.623 155.514L114.533 154.895L114.429 154.406ZM109.579 155.437L109.475 154.948L106.565 155.566L106.669 156.056L106.773 156.545L109.683 155.926L109.579 155.437ZM104.729 156.468L104.625 155.979L101.715 156.597L101.819 157.086L101.923 157.576L104.833 156.957L104.729 156.468ZM99.8786 157.499L99.7746 157.01L96.8646 157.628L96.9686 158.117L97.0725 158.606L99.9825 157.988L99.8786 157.499ZM95.0286 158.53L94.9246 158.041L92.0146 158.659L92.1186 159.148L92.2225 159.637L95.1325 159.019L95.0286 158.53ZM90.1786 159.561L90.0746 159.072L87.1646 159.69L87.2686 160.179L87.3725 160.668L90.2825 160.05L90.1786 159.561ZM85.3286 160.592L85.2246 160.102L82.3146 160.721L82.4186 161.21L82.5225 161.699L85.4325 161.081L85.3286 160.592ZM80.4786 161.622L80.3746 161.133L77.4646 161.752L77.5686 162.241L77.6726 162.73L80.5826 162.111L80.4786 161.622ZM75.6286 162.653L75.5247 162.164L74.0699 162.473L74.1738 162.963L74.2778 163.452L75.7326 163.142L75.6286 162.653ZM306.973 113.479L306.765 112.501L305.31 112.811L305.518 113.789L305.726 114.767L307.181 114.458L306.973 113.479ZM303.578 114.201L303.37 113.223L300.46 113.842L300.668 114.82L300.876 115.798L303.786 115.179L303.578 114.201ZM298.728 115.232L298.52 114.254L295.61 114.872L295.818 115.851L296.026 116.829L298.936 116.21L298.728 115.232ZM293.878 116.263L293.67 115.285L290.76 115.903L290.968 116.881L291.176 117.86L294.086 117.241L293.878 116.263ZM289.028 117.294L288.82 116.316L285.91 116.934L286.118 117.912L286.326 118.89L289.236 118.272L289.028 117.294ZM284.178 118.325L283.97 117.347L281.06 117.965L281.268 118.943L281.476 119.921L284.386 119.303L284.178 118.325ZM279.328 119.356L279.12 118.377L276.21 118.996L276.418 119.974L276.626 120.952L279.536 120.334L279.328 119.356ZM274.478 120.386L274.27 119.408L271.36 120.027L271.568 121.005L271.776 121.983L274.686 121.365L274.478 120.386ZM269.628 121.417L269.42 120.439L266.51 121.058L266.718 122.036L266.926 123.014L269.836 122.396L269.628 121.417ZM264.778 122.448L264.57 121.47L261.66 122.089L261.868 123.067L262.076 124.045L264.986 123.426L264.778 122.448ZM259.928 123.479L259.72 122.501L256.81 123.12L257.018 124.098L257.226 125.076L260.136 124.457L259.928 123.479ZM255.078 124.51L254.87 123.532L251.96 124.15L252.168 125.129L252.376 126.107L255.286 125.488L255.078 124.51ZM250.228 125.541L250.02 124.563L247.11 125.181L247.318 126.16L247.526 127.138L250.436 126.519L250.228 125.541ZM245.378 126.572L245.17 125.594L242.26 126.212L242.468 127.19L242.676 128.169L245.586 127.55L245.378 126.572ZM240.528 127.603L240.32 126.625L237.41 127.243L237.618 128.221L237.826 129.199L240.736 128.581L240.528 127.603ZM235.678 128.634L235.47 127.656L232.56 128.274L232.768 129.252L232.976 130.23L235.886 129.612L235.678 128.634ZM230.828 129.665L230.62 128.686L227.71 129.305L227.918 130.283L228.126 131.261L231.036 130.643L230.828 129.665ZM225.978 130.695L225.77 129.717L222.86 130.336L223.068 131.314L223.276 132.292L226.186 131.674L225.978 130.695ZM221.128 131.726L220.92 130.748L218.01 131.367L218.218 132.345L218.426 133.323L221.336 132.705L221.128 131.726ZM216.278 132.757L216.07 131.779L213.16 132.398L213.368 133.376L213.576 134.354L216.486 133.735L216.278 132.757ZM211.428 133.788L211.22 132.81L208.31 133.429L208.518 134.407L208.726 135.385L211.636 134.766L211.428 133.788ZM206.578 134.819L206.37 133.841L203.46 134.459L203.668 135.438L203.876 136.416L206.786 135.797L206.578 134.819ZM201.728 135.85L201.52 134.872L198.61 135.49L198.818 136.468L199.026 137.447L201.936 136.828L201.728 135.85ZM196.878 136.881L196.67 135.903L193.76 136.521L193.968 137.499L194.176 138.478L197.086 137.859L196.878 136.881ZM192.028 137.912L191.82 136.934L188.91 137.552L189.118 138.53L189.326 139.508L192.236 138.89L192.028 137.912ZM187.178 138.943L186.971 137.964L184.061 138.583L184.268 139.561L184.476 140.539L187.386 139.921L187.178 138.943ZM182.328 139.974L182.121 138.995L179.211 139.614L179.418 140.592L179.626 141.57L182.536 140.952L182.328 139.974ZM177.478 141.004L177.271 140.026L174.361 140.645L174.568 141.623L174.776 142.601L177.686 141.983L177.478 141.004ZM172.628 142.035L172.421 141.057L169.511 141.676L169.718 142.654L169.926 143.632L172.836 143.013L172.628 142.035ZM167.778 143.066L167.571 142.088L164.661 142.707L164.868 143.685L165.076 144.663L167.986 144.044L167.778 143.066ZM162.928 144.097L162.721 143.119L159.811 143.738L160.018 144.716L160.226 145.694L163.136 145.075L162.928 144.097ZM158.079 145.128L157.871 144.15L154.961 144.768L155.168 145.747L155.376 146.725L158.286 146.106L158.079 145.128ZM153.228 146.159L153.021 145.181L150.111 145.799L150.319 146.777L150.526 147.756L153.436 147.137L153.228 146.159ZM148.379 147.19L148.171 146.212L145.261 146.83L145.469 147.808L145.676 148.787L148.586 148.168L148.379 147.19ZM143.529 148.221L143.321 147.243L140.411 147.861L140.619 148.839L140.826 149.817L143.736 149.199L143.529 148.221ZM138.679 149.252L138.471 148.273L135.561 148.892L135.769 149.87L135.976 150.848L138.886 150.23L138.679 149.252ZM133.829 150.283L133.621 149.304L130.711 149.923L130.919 150.901L131.126 151.879L134.036 151.261L133.829 150.283ZM128.979 151.313L128.771 150.335L125.861 150.954L126.069 151.932L126.276 152.91L129.186 152.292L128.979 151.313ZM124.129 152.344L123.921 151.366L121.011 151.985L121.219 152.963L121.426 153.941L124.336 153.322L124.129 152.344ZM119.279 153.375L119.071 152.397L116.161 153.016L116.369 153.994L116.576 154.972L119.486 154.353L119.279 153.375ZM114.429 154.406L114.221 153.428L111.311 154.047L111.519 155.025L111.726 156.003L114.636 155.384L114.429 154.406ZM109.579 155.437L109.371 154.459L106.461 155.077L106.669 156.056L106.876 157.034L109.786 156.415L109.579 155.437ZM104.729 156.468L104.521 155.49L101.611 156.108L101.819 157.086L102.026 158.065L104.936 157.446L104.729 156.468ZM99.8786 157.499L99.6707 156.521L96.7607 157.139L96.9686 158.117L97.1765 159.095L100.086 158.477L99.8786 157.499ZM95.0286 158.53L94.8207 157.552L91.9107 158.17L92.1186 159.148L92.3265 160.126L95.2365 159.508L95.0286 158.53ZM90.1786 159.561L89.9707 158.582L87.0607 159.201L87.2686 160.179L87.4765 161.157L90.3865 160.539L90.1786 159.561ZM85.3286 160.592L85.1207 159.613L82.2107 160.232L82.4186 161.21L82.6265 162.188L85.5365 161.57L85.3286 160.592ZM80.4786 161.622L80.2707 160.644L77.3607 161.263L77.5686 162.241L77.7765 163.219L80.6865 162.601L80.4786 161.622ZM75.6286 162.653L75.4207 161.675L73.9659 161.984L74.1738 162.963L74.3817 163.941L75.8365 163.631L75.6286 162.653Z" fill="#BEC9C9" fill-opacity="0.4" mask="url(#path-10-inside-1_1_2738)"/>
<rect x="79.375" y="187.416" width="63.9993" height="16.0004" rx="2" transform="rotate(-12 79.375 187.416)" fill="#E5E9E8"/>
<rect x="279.203" y="136.762" width="31.9986" height="32.0007" rx="12" transform="rotate(-12 279.203 136.762)" fill="#E5E9E8"/>
<defs>
<filter id="filter0_d_1_2738" x="0" y="0" width="375.326" height="289.059" filterUnits="userSpaceOnUse" color-interpolation-filters="sRGB">
<feFlood flood-opacity="0" result="BackgroundImageFix"/>
<feColorMatrix in="SourceAlpha" type="matrix" values="0 0 0 0 0 0 0 0 0 0 0 0 0 0 0 0 0 0 127 0" result="hardAlpha"/>
<feMorphology radius="10" operator="erode" in="SourceAlpha" result="effect1_dropShadow_1_2738"/>
<feOffset dy="20"/>
<feGaussianBlur stdDeviation="20"/>
<feComposite in2="hardAlpha" operator="out"/>
<feColorMatrix type="matrix" values="0 0 0 0 0.0941176 0 0 0 0 0.109804 0 0 0 0 0.109804 0 0 0 0.06 0"/>
<feBlend mode="normal" in2="BackgroundImageFix" result="effect1_dropShadow_1_2738"/>
<feBlend mode="normal" in="SourceGraphic" in2="effect1_dropShadow_1_2738" result="shape"/>
</filter>
</defs>
</svg>
